<svg xmlns="http://www.w3.org/2000/svg" viewBox="0 0 32 40" x="0px" y="0px" style="&#10; fill: #89b2d3"><title>business, management, career, currency, dollar, money, sign</title><g><path d="M20,12v-.83A3.17,3.17,0,0,0,16.83,8H15.17A3.17,3.17,0,0,0,14,14.12L18.75,16A5.17,5.17,0,0,1,17,26v2a1,1,0,0,1-2,0V26a5.17,5.17,0,0,1-5-5.15V20a1,1,0,0,1,2,0v.83A3.17,3.17,0,0,0,15.17,24h1.66A3.17,3.17,0,0,0,18,17.88L13.25,16A5.17,5.17,0,0,1,15,6V4a1,1,0,0,1,2,0V6a5.17,5.17,0,0,1,5,5.15V12a1,1,0,0,1-2,0Z"/></g><text x="0" y="47" fill="#000000" font-size="5px" font-weight="bold" font-family="'Helvetica Neue', Helvetica, Arial-Unicode, Arial, Sans-serif">Created by Kmg Design</text><text x="0" y="52" fill="#000000" font-size="5px" font-weight="bold" font-family="'Helvetica Neue', Helvetica, Arial-Unicode, Arial, Sans-serif">from the Noun Project</text></svg>